<?xml version="1.0" encoding="UTF-8"?>
<svg width="374px" height="374px" viewBox="0 0 374 374" version="1.1" xmlns="http://www.w3.org/2000/svg" xmlns:xlink="http://www.w3.org/1999/xlink">
    <title>logo</title>
    <defs>
        <linearGradient x1="50%" y1="0%" x2="50%" y2="111.19783%" id="linearGradient-1">
            <stop stop-color="#E535AB" offset="0%"></stop>
            <stop stop-color="#00227F" offset="100%"></stop>
        </linearGradient>
    </defs>
    <g id="logo" stroke="none" stroke-width="1" fill="none" fill-rule="evenodd">
        <path d="M155.957142,-3.9136212e-15 L218.042858,5.8704318e-15 C269.712531,-3.62113328e-15 290.357026,5.75518789 310.564434,16.5622276 C330.771841,27.3692674 346.630733,43.228159 357.437772,63.4355664 C368.244812,83.6429738 374,104.287469 374,155.957142 L374,218.042858 C374,269.712531 368.244812,290.357026 357.437772,310.564434 C346.630733,330.771841 330.771841,346.630733 310.564434,357.437772 C290.357026,368.244812 269.712531,374 218.042858,374 L155.957142,374 C104.287469,374 83.6429738,368.244812 63.4355664,357.437772 C43.228159,346.630733 27.3692674,330.771841 16.5622276,310.564434 C5.75518789,290.357026 1.20704443e-15,269.712531 -1.9568106e-15,218.042858 L3.9136212e-15,155.957142 C-2.41408885e-15,104.287469 5.75518789,83.6429738 16.5622276,63.4355664 C27.3692674,43.228159 43.228159,27.3692674 63.4355664,16.5622276 C83.6429738,5.75518789 104.287469,2.41408885e-15 155.957142,-3.9136212e-15 Z" id="Rectangle-Copy" fill="url(#linearGradient-1)"></path>
        <path d="M257.47657,64.9919256 C274.952497,75.0816566 277.947078,103.504348 269.017269,139.238244 C304.680292,149.352338 328,166.221722 328,186.5 C328,206.811167 304.604588,223.702373 268.842309,233.810132 C277.985221,269.869323 275.065566,298.595292 257.47657,308.750304 C239.935169,318.877836 213.692799,307.134713 187.109365,281.333357 C160.526376,307.134713 134.284006,318.877836 116.742605,308.750304 C99.1197199,298.575727 96.2227569,269.758563 105.42971,233.600965 C70.0772343,223.471707 47,206.672578 47,186.5 C47,166.360311 70.0020468,149.58308 105.25457,139.447322 C96.260482,103.615179 99.2326265,75.1013161 116.742605,64.9919256 C134.284006,54.864393 160.526376,66.607516 187.10981,92.4088728 C213.692799,66.607516 239.935169,54.864393 257.47657,64.9919256 Z M256.921739,236.82428 L255.799845,237.073926 C244.626432,239.533036 232.520324,241.387814 219.750997,242.556073 C211.943981,253.640917 203.843707,263.707074 195.690829,272.527795 C218.347027,294.623183 239.518265,304.987615 251.357702,298.152113 C263.236586,291.293836 264.817509,267.642668 256.921739,236.82428 Z M117.341516,236.657332 L117.050116,237.799606 C109.436254,268.141027 111.108211,291.366365 122.861473,298.152113 C134.700909,304.987615 155.872147,294.623183 178.528439,272.52804 C170.356525,263.686581 162.237555,253.594136 154.414919,242.477999 C141.24162,241.239764 128.785072,239.269083 117.341516,236.657332 Z M170.434192,243.602855 L171.545343,245.059865 C176.698456,251.788628 181.91727,258.013417 187.110344,263.670496 C192.665289,257.617563 198.251217,250.91469 203.7546,243.63995 C198.420004,243.878221 192.99594,244 187.5,244 C181.72527,244 176.029894,243.865552 170.434192,243.602855 Z M187.5,141.234043 C178.676899,141.234043 170.06742,141.571154 161.754499,142.206431 C156.998717,149.151559 152.35337,156.511401 147.896283,164.231303 C143.512353,171.824492 139.521157,179.401242 135.930311,186.87228 C139.521513,194.341664 143.512549,201.918076 147.896283,209.510926 C152.185662,216.94035 156.649401,224.0363 161.218648,230.750788 C169.697277,231.414193 178.487186,231.765957 187.5,231.765957 C196.221165,231.765957 204.733617,231.436591 212.957258,230.815468 C217.541278,224.081593 222.019821,216.964062 226.322891,209.510926 C230.706626,201.918076 234.697661,194.341664 238.288383,186.870949 C234.698018,179.401242 230.706821,171.824492 226.322891,164.231303 C221.852328,156.488059 217.192364,149.107056 212.42095,142.142623 C204.36248,141.54921 196.031097,141.234043 187.5,141.234043 Z M244.78353,201.287181 L244.642541,201.556253 C242.208778,206.234632 239.633636,210.931513 236.921082,215.629795 C234.232418,220.286697 231.477444,224.825996 228.668652,229.23602 C237.420526,228.132258 245.742808,226.692713 253.524657,224.970816 C251.12286,217.363671 248.205466,209.427353 244.78353,201.287181 Z M129.436261,201.286136 L128.934529,202.486459 C125.752441,210.148307 123.020049,217.623219 120.746242,224.807022 C128.484234,226.545671 136.767116,228.003358 145.480667,229.128231 C142.69651,224.751473 139.964688,220.248474 137.298092,215.629795 C134.533329,210.841084 131.911318,206.053828 129.436261,201.286136 Z M265.705917,151.075641 L265.127905,152.917814 C261.668128,163.821599 257.221093,175.230474 251.85024,186.870984 C257.412145,198.925935 261.98302,210.731246 265.492888,221.984557 C296.104383,213.415821 315.782609,200.219008 315.782609,186.5 C315.782609,172.81287 296.195727,159.64551 265.705917,151.075641 Z M108.577321,151.278338 L108.496456,151.30159 C78.4630967,159.875915 59.2173913,172.932599 59.2173913,186.5 C59.2173913,200.111551 78.5885566,213.209056 108.789996,221.781973 C112.290949,210.589751 116.840536,198.853209 122.368934,186.871246 C116.728011,174.645032 112.106466,162.675567 108.577321,151.278338 Z M145.99825,143.805048 L144.960025,143.939444 C136.355738,145.065519 128.175242,146.516374 120.527212,148.240976 C122.961029,156.009904 125.934207,164.125758 129.435645,172.455049 C131.911318,167.688401 134.533329,162.901145 137.298092,158.112435 C140.129471,153.208343 143.034386,148.43467 145.99825,143.805048 Z M228.151038,143.698311 L228.593766,144.388684 C231.42848,148.835574 234.208528,153.414153 236.921082,158.112435 C239.685845,162.901145 242.307856,167.688401 244.782913,172.456094 C248.309614,164.067127 251.299976,155.895659 253.743041,148.076304 C245.743956,146.299955 237.172883,144.821097 228.151038,143.698311 Z M122.861473,75.590116 C111.051379,82.4086768 109.420321,105.826197 117.161216,136.383266 C128.817817,133.714262 141.526952,131.710735 154.974912,130.469118 C162.625701,119.666353 170.551846,109.844328 178.528346,101.214435 C155.872147,79.1190463 134.700909,68.754614 122.861473,75.590116 Z M196.185218,100.733587 L195.690829,101.214435 C203.648386,109.823834 211.555829,119.619711 219.188327,130.39196 C232.662878,131.602583 245.405701,133.575728 257.101435,136.21622 C264.792889,105.741097 263.146323,82.3962794 251.357702,75.590116 C239.60444,68.8043673 218.65473,78.9690791 196.185218,100.733587 Z M187.108831,110.071733 L186.820892,110.387607 C181.547036,116.153059 176.248393,122.502591 171.020689,129.369482 C176.427832,129.12522 181.926963,129 187.5,129 C192.79558,129 198.024428,129.113062 203.170874,129.334406 C197.856613,122.3548 192.46901,115.910849 187.108831,110.071733 Z" id="react" fill="#000000" fill-rule="nonzero" opacity="0.123163132"></path>
        <path d="M187.5,64 C199.389685,64 209,73.6103152 209,85.5 C209,87.7391626 208.659146,89.8974817 208.026406,91.92599 L259.795536,121.814775 C261.209451,120.300692 262.867413,118.965266 264.7531,117.869987 C275.038099,111.957652 288.156091,115.468101 294.130013,125.7531 C300.042348,136.038099 296.531899,149.156091 286.2469,155.130013 C284.560927,156.099195 282.797172,156.815172 281.000398,157.28961 L281.001044,216.817387 C282.699937,217.289969 284.366937,217.971066 285.965532,218.869987 C296.542695,224.843909 300.131375,237.961901 294.024323,248.2469 C287.98023,258.531899 274.50694,262.042348 263.992736,256.130013 C261.988926,255.003233 260.236659,253.612498 258.754676,252.028149 L207.816903,281.437671 C208.583594,283.648938 209,286.025088 209,288.5 C209,300.32808 199.389685,310 187.5,310 C175.610315,310 166,300.389685 166,288.5 C166,286.295807 166.330291,284.169952 166.944163,282.169144 L115.137099,252.257031 C113.737973,253.741549 112.102721,255.052081 110.2469,256.130013 C99.9003143,262.042348 86.7823217,258.531899 80.869987,248.2469 C74.9576523,237.961901 78.468101,224.843909 88.7530999,218.869987 C90.4405657,217.899947 92.2042932,217.18356 94.0002175,216.70913 L94.0006038,157.289875 C92.2034831,156.815438 90.4393861,156.099375 88.7530999,155.130013 C78.468101,149.217678 74.9576523,136.038099 80.869987,125.7531 C86.7823217,115.468101 99.9619011,111.957652 110.2469,117.869987 C112.112676,118.953701 113.755511,120.272518 115.159595,121.766875 L166.954029,91.8629221 C166.33383,89.8527668 166,87.7159722 166,85.5 C166,73.6103152 175.610315,64 187.5,64 Z M253.732102,243.000753 L120.277816,243.000606 C120.263732,243.053722 120.249445,243.106784 120.234956,243.159792 L172.340097,273.242795 C176.224997,269.382582 181.579949,267 187.5,267 C193.630401,267 199.154831,269.554905 203.068407,273.659831 L254.093708,244.20096 C253.961386,243.804358 253.840801,243.404105 253.732102,243.000753 Z M181.796317,106.237814 L114.756523,222.349235 C116.036532,223.636702 117.174631,225.108267 118.130013,226.7531 C119.100053,228.440566 119.81644,230.204293 120.29087,232.000217 L253.726048,232.000242 C254.211058,230.203246 254.943047,228.439273 255.933946,226.7531 C257.032534,224.883674 258.376565,223.238063 259.903657,221.832169 L193.169786,106.24706 C191.36399,106.738022 189.463063,107 187.5,107 C185.52465,107 183.612216,106.734732 181.796317,106.237814 Z M172.36402,100.78094 L120.243952,130.87322 C121.691778,136.203267 121.098906,142.082263 118.130013,147.2469 C115.158865,152.415459 110.352446,155.873173 105.000392,157.283952 L105.000606,216.722184 C105.27741,216.795583 105.552765,216.874475 105.826495,216.958814 L172.710877,101.116914 C172.594005,101.006216 172.478379,100.894217 172.36402,100.78094 Z M202.589022,100.827312 C202.481467,100.9332 202.3728,101.037963 202.263039,101.14158 L269.039243,216.800226 C269.35759,216.713188 269.677928,216.633114 269.999994,216.560071 L270.000608,157.284216 C264.648153,155.873603 259.84132,152.415781 256.869987,147.2469 C253.912984,142.102946 253.313009,136.250344 254.738752,130.937283 L202.589022,100.827312 Z" id="gql" fill="#FFFFFF" fill-rule="nonzero"></path>
        <circle id="Oval" fill="#FFFFFF" fill-rule="nonzero" cx="187" cy="187" r="25"></circle>
    </g>
</svg>